<svg width="42" height="42" viewBox="0 0 42 42" fill="none" xmlns="http://www.w3.org/2000/svg">
<path fill-rule="evenodd" clip-rule="evenodd" d="M21 14C17.134 14 14 17.134 14 21C14 24.866 17.134 28 21 28C24.866 28 28 24.866 28 21C28 17.134 24.866 14 21 14ZM17.5 21C17.5 19.067 19.067 17.5 21 17.5C22.933 17.5 24.5 19.067 24.5 21C24.5 22.933 22.933 24.5 21 24.5C19.067 24.5 17.5 22.933 17.5 21Z" fill="#2D3648"/>
<path fill-rule="evenodd" clip-rule="evenodd" d="M35.551 26.9566L33.95 26.25L35.5585 26.9394C35.6459 26.7355 35.791 26.5616 35.9759 26.4391C36.1602 26.3171 36.3759 26.2514 36.5969 26.25H36.75C38.1424 26.25 39.4777 25.6969 40.4623 24.7123C41.4469 23.7277 42 22.3924 42 21C42 19.6076 41.4469 18.2723 40.4623 17.2877C39.4777 16.3031 38.1424 15.75 36.75 15.75H36.4569C36.2359 15.7486 36.0202 15.6829 35.8359 15.5609C35.7118 15.4787 35.6057 15.3734 35.5229 15.2514C35.4979 15.1321 35.4605 15.0155 35.411 14.9034C35.3192 14.6955 35.2919 14.4648 35.3324 14.2412C35.3725 14.02 35.4773 13.8157 35.6333 13.654L35.7292 13.5581C36.217 13.0707 36.6047 12.4912 36.8688 11.8542C37.133 11.2168 37.269 10.5337 37.269 9.84375C37.269 9.15382 37.133 8.47065 36.8688 7.83331C36.6049 7.19657 36.2181 6.61805 35.7306 6.13075C35.243 5.64263 34.664 5.25539 34.0267 4.99119C33.3893 4.72699 32.7062 4.591 32.0163 4.591C31.3263 4.591 30.6432 4.72699 30.0058 4.99119C29.3685 5.25539 28.7895 5.64262 28.3019 6.13075L28.2059 6.22669C28.0443 6.38275 27.84 6.48748 27.6188 6.52758C27.3952 6.56813 27.1645 6.54076 26.9566 6.44899L26.9394 6.44151C26.7355 6.35412 26.5616 6.20901 26.4391 6.02405C26.3171 5.83982 26.2514 5.62405 26.25 5.40312V5.25C26.25 3.85761 25.6969 2.52225 24.7123 1.53769C23.7277 0.553124 22.3924 0 21 0C19.6076 0 18.2723 0.553124 17.2877 1.53769C16.3031 2.52225 15.75 3.85761 15.75 5.25V5.54312C15.7486 5.76405 15.6829 5.97982 15.5609 6.16405C15.4787 6.28816 15.3734 6.39432 15.2514 6.47714C15.1321 6.50211 15.0155 6.53953 14.9034 6.58899C14.6955 6.68076 14.4648 6.70813 14.2412 6.66758C14.02 6.62748 13.8157 6.52274 13.654 6.36667L13.5581 6.27075C13.0705 5.78263 12.4915 5.39539 11.8542 5.13119C11.2168 4.86699 10.5337 4.731 9.84375 4.731C9.15382 4.731 8.47065 4.86699 7.83331 5.13119C7.19627 5.39527 6.6175 5.78226 6.13006 6.27006C5.64226 6.7575 5.25527 7.33627 4.99119 7.97331C4.72699 8.61065 4.591 9.29382 4.591 9.98375C4.591 10.6737 4.72699 11.3568 4.99119 11.9942C5.25539 12.6315 5.64263 13.2105 6.13075 13.6981L6.22667 13.794C6.38274 13.9557 6.48748 14.16 6.52758 14.3812C6.56813 14.6048 6.54076 14.8355 6.44899 15.0434C6.4341 15.0771 6.42029 15.1113 6.40756 15.1459C6.32877 15.3602 6.18736 15.5457 6.00172 15.6785C5.82035 15.8082 5.60496 15.8817 5.38237 15.89H5.25C3.85761 15.89 2.52225 16.4431 1.53769 17.4277C0.553124 18.4123 0 19.7476 0 21.14C0 22.5324 0.553124 23.8677 1.53769 24.8523C2.52225 25.8369 3.85761 26.39 5.25 26.39H5.54312C5.76405 26.3914 5.97982 26.4571 6.16405 26.5791C6.34901 26.7016 6.49412 26.8755 6.5815 27.0794L6.58899 27.0966C6.68076 27.3045 6.70813 27.5352 6.66758 27.7588C6.62748 27.98 6.52275 28.1843 6.36669 28.3459L6.27075 28.4419C5.78262 28.9295 5.39539 29.5085 5.13119 30.1458C4.86699 30.7832 4.731 31.4663 4.731 32.1562C4.731 32.8462 4.86699 33.5293 5.13119 34.1667C5.39539 34.804 5.78262 35.383 6.27075 35.8706C6.75805 36.3581 7.33658 36.7449 7.97331 37.0088C8.61065 37.273 9.29382 37.409 9.98375 37.409C10.6737 37.409 11.3568 37.273 11.9942 37.0088C12.6312 36.7447 13.21 36.3577 13.6975 35.8699L13.794 35.7733C13.9557 35.6173 14.16 35.5125 14.3812 35.4724C14.6048 35.4319 14.8355 35.4592 15.0434 35.551C15.0771 35.5659 15.1113 35.5797 15.1459 35.5924C15.3602 35.6712 15.5457 35.8126 15.6785 35.9983C15.8082 36.1796 15.8817 36.395 15.89 36.6176V36.75C15.89 38.1424 16.4431 39.4777 17.4277 40.4623C18.4123 41.4469 19.7476 42 21.14 42C22.5324 42 23.8677 41.4469 24.8523 40.4623C25.8369 39.4777 26.39 38.1424 26.39 36.75V36.4569C26.3914 36.2359 26.4571 36.0202 26.5791 35.8359C26.7016 35.651 26.8755 35.5059 27.0794 35.4185L27.0966 35.411C27.3045 35.3192 27.5352 35.2919 27.7588 35.3324C27.98 35.3725 28.1843 35.4772 28.3459 35.6333L28.4419 35.7292C28.9293 36.2171 29.5088 36.6047 30.1458 36.8688C30.7832 37.133 31.4663 37.269 32.1562 37.269C32.8462 37.269 33.5293 37.133 34.1667 36.8688C34.8037 36.6047 35.3825 36.2177 35.8699 35.7299C36.3577 35.2425 36.7447 34.6637 37.0088 34.0267C37.273 33.3893 37.409 32.7062 37.409 32.0163C37.409 31.3263 37.273 30.6432 37.0088 30.0058C36.7447 29.3688 36.3577 28.79 35.8699 28.3025L35.7733 28.2059C35.6172 28.0443 35.5125 27.84 35.4724 27.6188C35.4319 27.3952 35.4592 27.1645 35.551 26.9566ZM19.7626 4.01256C20.0908 3.68437 20.5359 3.5 21 3.5C21.4641 3.5 21.9092 3.68437 22.2374 4.01256C22.5656 4.34075 22.75 4.78587 22.75 5.25V5.4075L22.75 5.41448C22.7536 6.3189 23.0216 7.20252 23.521 7.95658C24.0186 8.70801 24.7244 9.2981 25.552 9.65477C26.3975 10.0259 27.3346 10.1362 28.2432 9.97143C29.155 9.80611 29.9963 9.37146 30.6587 8.72351L30.6724 8.70993L30.7774 8.60493C30.94 8.44222 31.1337 8.31246 31.3461 8.22439C31.5586 8.13633 31.7863 8.091 32.0163 8.091C32.2462 8.091 32.4739 8.13633 32.6864 8.22439C32.8988 8.31246 33.0918 8.44154 33.2544 8.60425L33.2558 8.60563C33.4185 8.76815 33.5475 8.96116 33.6356 9.1736C33.7237 9.38605 33.769 9.61378 33.769 9.84375C33.769 10.0737 33.7237 10.3014 33.6356 10.5139C33.5475 10.7263 33.4185 10.9193 33.2558 11.0819L33.1501 11.1876L33.1365 11.2013C32.4885 11.8637 32.0539 12.705 31.8886 13.6168C31.745 14.4083 31.8102 15.2215 32.0748 15.9768C32.0955 16.1357 32.1381 16.2914 32.2015 16.4394C32.5578 17.2707 33.1494 17.9796 33.9034 18.479C34.6575 18.9784 35.5411 19.2464 36.4455 19.25L36.4525 19.25H36.75C37.2141 19.25 37.6592 19.4344 37.9874 19.7626C38.3156 20.0908 38.5 20.5359 38.5 21C38.5 21.4641 38.3156 21.9092 37.9874 22.2374C37.6592 22.5656 37.2141 22.75 36.75 22.75L36.5925 22.75L36.5855 22.75C35.6811 22.7536 34.7975 23.0216 34.0434 23.521C33.2919 24.0187 32.7018 24.7245 32.3451 25.5522C31.9741 26.3976 31.8638 27.3346 32.0286 28.2432C32.1939 29.155 32.6285 29.9963 33.2765 30.6587L33.2901 30.6725L33.3951 30.7775C33.5578 30.94 33.6875 31.1337 33.7756 31.3461C33.8637 31.5586 33.909 31.7863 33.909 32.0163C33.909 32.2462 33.8637 32.4739 33.7756 32.6864C33.6875 32.8988 33.5585 33.0918 33.3958 33.2544L33.3944 33.2558C33.2318 33.4185 33.0388 33.5475 32.8264 33.6356C32.6139 33.7237 32.3862 33.769 32.1562 33.769C31.9263 33.769 31.6986 33.7237 31.4861 33.6356C31.2737 33.5475 31.0807 33.4185 30.9181 33.2558L30.8124 33.1501L30.7987 33.1365C30.1363 32.4885 29.295 32.0539 28.3832 31.8886C27.4746 31.7238 26.5376 31.8341 25.6922 32.2051C24.8645 32.5618 24.1587 33.1519 23.661 33.9034C23.1616 34.6575 22.8936 35.5411 22.89 36.4455L22.89 36.4525V36.75C22.89 37.2141 22.7056 37.6592 22.3774 37.9874C22.0492 38.3156 21.6041 38.5 21.14 38.5C20.6759 38.5 20.2308 38.3156 19.9026 37.9874C19.5744 37.6592 19.39 37.2141 19.39 36.75V36.5925L19.3895 36.5516C19.3678 35.6213 19.0666 34.719 18.5253 33.9622C17.9947 33.2203 17.2573 32.6517 16.4058 32.327C15.5714 31.9705 14.6503 31.8665 13.7568 32.0286C12.845 32.1939 12.0037 32.6285 11.3413 33.2765L11.3275 33.2901L11.2225 33.3951C11.06 33.5578 10.8663 33.6875 10.6539 33.7756C10.4414 33.8637 10.2137 33.909 9.98375 33.909C9.75378 33.909 9.52605 33.8637 9.3136 33.7756C9.10115 33.6875 8.90815 33.5585 8.74563 33.3958L8.74425 33.3944C8.58154 33.2319 8.45246 33.0388 8.36439 32.8264C8.27633 32.6139 8.231 32.3862 8.231 32.1562C8.231 31.9263 8.27633 31.6986 8.36439 31.4861C8.45246 31.2737 8.58154 31.0806 8.74425 30.9181L8.84993 30.8124L8.86351 30.7987C9.51146 30.1363 9.94611 29.295 10.1114 28.3832C10.2762 27.4746 10.1659 26.5375 9.79477 25.692C9.4381 24.8644 8.84801 24.1586 8.09658 23.661C7.34252 23.1616 6.4589 22.8936 5.55448 22.89L5.5475 22.89H5.25C4.78587 22.89 4.34075 22.7056 4.01256 22.3774C3.68437 22.0492 3.5 21.6041 3.5 21.14C3.5 20.6759 3.68437 20.2308 4.01256 19.9026C4.34075 19.5744 4.78587 19.39 5.25 19.39H5.4075L5.44842 19.3895C6.37872 19.3678 7.28095 19.0666 8.03783 18.5253C8.77971 17.9947 9.34831 17.2573 9.67304 16.4059C10.0295 15.5714 10.1335 14.6504 9.97143 13.7568C9.80611 12.845 9.37146 12.0037 8.72351 11.3413L8.70994 11.3276L8.60494 11.2226C8.44223 11.06 8.31246 10.8663 8.22439 10.6539C8.13633 10.4414 8.091 10.2137 8.091 9.98375C8.091 9.75377 8.13633 9.52605 8.22439 9.3136C8.31246 9.10116 8.44154 8.90815 8.60425 8.74562L8.60563 8.74425C8.76815 8.58154 8.96116 8.45246 9.1736 8.36439C9.38605 8.27633 9.61377 8.231 9.84375 8.231C10.0737 8.231 10.3014 8.27633 10.5139 8.36439C10.7263 8.45246 10.9193 8.58154 11.0819 8.74425L11.1876 8.84994L11.2013 8.86351C11.8637 9.51146 12.705 9.94611 13.6168 10.1114C14.4083 10.255 15.2215 10.1898 15.9768 9.92524C16.1357 9.90447 16.2914 9.86191 16.4394 9.79849C17.2707 9.44221 17.9796 8.85063 18.479 8.09658C18.9784 7.34252 19.2464 6.4589 19.25 5.55448L19.25 5.5475V5.25C19.25 4.78587 19.4344 4.34075 19.7626 4.01256Z" fill="#2D3648"/>
</svg>
